<svg xmlns="http://www.w3.org/2000/svg" version="1.1" xmlns:xlink="http://www.w3.org/1999/xlink" xmlns:svgjs="http://svgjs.dev/svgjs" width="100%" height="100%" viewBox="0 0 1000 600"><rect width="1000" height="600" x="0" y="0" fill="#79befc"/><g><rect width="333.3333333333333" height="333.3333333333333" rx="13.333333333333334" ry="13.333333333333334" y="224.36416927318774" fill="#1d1b1b" transform="matrix(0.6183773412209993,0,0,0.6183773412209992,0,58.19538571509594)" x="202.14195251464844"/><path d="M383.5389814650885 332.1803177410535L383.5389814650885 332.1803177410535Q360.03850944594586 332.1803177410535 346.5285762561972 347.9040635123156Q333.047025279032 363.65619149616117 333.047025279032 391.04502663924404L333.047025279032 391.04502663924404Q333.047025279032 418.20680408165896 345.62034545352503 434.0440787032551Q358.19366562801804 449.88135332485115 383.31192376442044 449.88135332485115L383.31192376442044 449.88135332485115Q392.9334938302288 449.88135332485115 401.5049220304476 448.26356720759134Q410.10473244324976 446.61739887774803 418.27880966729936 444.17652859556654L418.27880966729936 444.17652859556654L418.27880966729936 460.0989498549132Q410.10473244324976 463.1642288139318 401.41977539269703 464.6117216556906Q392.7348183421443 466.0308322848658 380.67237799415443 466.0308322848658L380.67237799415443 466.0308322848658Q358.39234111610256 466.0308322848658 343.4632972971786 456.83499540781Q328.5626356908382 447.63915853075423 321.0981137813762 430.6665954058179Q313.63359187191423 413.72241449346507 313.63359187191423 390.81796893857603L313.63359187191423 390.81796893857603Q313.63359187191423 368.76498976119217 321.7225224582133 351.90595548658985Q329.7830708319289 335.0469212119875 345.506816603191 325.5388799965132Q361.2589445870366 316.03083878103877 383.73765695317303 316.03083878103877L383.73765695317303 316.03083878103877Q394.9770131362412 316.03083878103877 405.3932851543878 318.27303357513574Q415.80955717253437 320.5436105818162 423.98363439658397 324.630649193841L423.98363439658397 324.630649193841L416.632641337456 340.1557194770185Q409.8776747425817 337.0904405179999 401.61845088078155 334.62118802323494Q393.3308448063979 332.1803177410535 383.5389814650885 332.1803177410535Z " fill="#79befc" transform="matrix(0.6183773412209993,0,0,0.6183773412209992,0,58.19538571509594)"/><path d="M665.9677028438011 357.9139540909734L665.9677028438011 357.9139540909734Q685.0423773284867 357.9139540909734 694.2144548466548 366.3013996090621Q703.359476088958 374.661788851286 703.359476088958 392.97888761175716L703.359476088958 392.97888761175716L703.359476088958 464.0827805844576L690.8865329152841 464.0827805844576L687.5856672597782 449.28299768641074L686.8010352596989 449.28299768641074Q679.9828537417688 457.8598371355531 672.4882653272185 461.9453347911382Q664.9936769126683 466.03083244672337 651.7361017389152 466.03083244672337L651.7361017389152 466.03083244672337Q637.5045006340292 466.03083244672337 628.1700854606725 458.53624403217316Q618.8086140114508 451.0416556176229 618.8086140114508 435.0513965815247L618.8086140114508 435.0513965815247Q618.8086140114508 419.46698168339867 631.092163254071 410.9983673377155Q643.3486562208265 402.5297529920324 668.8897806371998 401.7451209919531L668.8897806371998 401.7451209919531L686.6116413286453 401.1498829229275L686.6116413286453 394.92693947402296Q686.6116413286453 381.88581450718823 680.9568796729017 376.7992346446054Q675.3021180171579 371.73971105788735 664.9936769126683 371.73971105788735L664.9936769126683 371.73971105788735Q656.7956253256332 371.73971105788735 649.4092620145422 374.1747758857196Q641.9958424275864 376.6098407135518 635.5564487717634 379.7213124380041L635.5564487717634 379.7213124380041L630.3075312539918 366.869581402223Q637.1257127719219 363.16287160874504 646.4871842211435 360.53841284985924Q655.8215993945003 357.9139540909734 665.9677028438011 357.9139540909734ZM686.4222473975917 413.05464430344045L671.0272264305192 413.62282609660133Q651.5467078078616 414.4074580966806 644.0521193933114 419.8728258213706Q636.5304747028963 425.3111372701959 636.5304747028963 435.24079051257837L636.5304747028963 435.24079051257837Q636.5304747028963 444.0070238927743 641.8876173241272 448.1195778242243Q647.244759945358 452.2050754798094 655.6322054634468 452.2050754798094L655.6322054634468 452.2050754798094Q668.8897806371998 452.2050754798094 677.6560140173958 444.89988099631273Q686.4222473975917 437.59468651281617 686.4222473975917 422.3890594767973L686.4222473975917 422.3890594767973L686.4222473975917 413.05464430344045ZM784.3930223040409 357.7245601599198L784.3930223040409 357.7245601599198Q787.3151000974394 357.7245601599198 790.7241908564046 358.0221791944326Q794.1332816153697 358.2927419530806 796.6765715466611 358.88798002210626L796.6765715466611 358.88798002210626L794.5391257533418 374.661788851286Q791.9958358220503 374.0936070581252 788.9655329251924 373.68776292015315Q785.9622863041993 373.3089750580459 783.2296024418544 373.3089750580459L783.2296024418544 373.3089750580459Q775.2480010617377 373.3089750580459 768.2404256127538 377.69209174814387Q761.2057938879052 382.0752084382419 757.0391274047257 389.9485847148993Q752.8454046456814 397.8490172674216 752.8454046456814 408.3739085788297L752.8454046456814 408.3739085788297L752.8454046456814 464.0827805844576L735.6917257473967 464.0827805844576L735.6917257473967 359.67261202218555L749.7339329212291 359.67261202218555L751.6819847834948 378.7472865068712L752.4395605077093 378.7472865068712Q757.5261403702921 370.19750333359366 765.5077417504087 363.9475036088243Q773.4893431305255 357.7245601599198 784.3930223040409 357.7245601599198ZM869.1332783126016 324.98646636350907L907.526133764756 324.98646636350907Q933.4189897673718 324.98646636350907 945.7837078375865 334.83495077829707Q958.175482183666 344.6563789172203 958.175482183666 364.54274167784996L958.175482183666 364.54274167784996Q958.175482183666 375.63581478241895 954.062928252216 383.04923436937474Q949.9774305966308 390.4355976804658 943.6462620442671 394.8187143705637Q937.3150934919033 399.2018310606617 930.3075180429196 401.7451209919531L930.3075180429196 401.7451209919531L968.4839232881557 464.0827805844576L948.0293787343651 464.0827805844576L914.3443152826862 406.6152506476176L886.6657450729936 406.6152506476176L886.6657450729936 464.0827805844576L869.1332783126016 464.0827805844576L869.1332783126016 324.98646636350907ZM906.5521078336232 340.19209339952795L906.5521078336232 340.19209339952795L886.6657450729936 340.19209339952795L886.6657450729936 391.8154677495707L907.526133764756 391.8154677495707Q924.4633624561222 391.8154677495707 932.2555699051853 385.0784550592349Q940.0477773542484 378.3684986447639 940.0477773542484 365.32737367792924L940.0477773542484 365.32737367792924Q940.0477773542484 351.6910106420689 931.876782043078 345.928023882866Q923.678730456043 340.19209339952795 906.5521078336232 340.19209339952795ZM1028.3053492252334 357.7245601599198L1028.3053492252334 357.7245601599198Q1041.7252620541753 357.7245601599198 1051.3843525379098 363.5687157467171Q1061.0163867457795 369.4128713335144 1066.1841354359567 380.0189314725169Q1071.3518841261339 390.6520478873842 1071.3518841261339 404.8565927164054L1071.3518841261339 404.8565927164054L1071.3518841261339 415.19209009675984L999.8421470154615 415.19209009675984Q1000.2479911534335 432.9139507882054 1008.9059994301703 442.16719713396776Q1017.5910639827716 451.4204434797301 1033.175478880898 451.4204434797301L1033.175478880898 451.4204434797301Q1043.1051321232803 451.4204434797301 1050.7891144688842 449.58061672092356Q1058.5001530903528 447.7137336862522 1066.6711484015232 444.2234740996927L1066.6711484015232 444.2234740996927L1066.6711484015232 459.2126509287932Q1058.6895470214063 462.7299667912175 1050.8973395723433 464.3803996189704Q1043.1051321232803 466.03083244672337 1032.3908468808186 466.03083244672337L1032.3908468808186 466.03083244672337Q1017.5910639827716 466.03083244672337 1006.1733155678252 459.99728292887244Q994.7826234287435 453.9637334110215 988.4514548763797 441.9778032029141Q982.120286324016 429.9918729948067 982.120286324016 412.6488001654684L982.120286324016 412.6488001654684Q982.120286324016 395.5221775430486 987.8832730832189 383.23862830042833Q993.619203566557 370.9550790578081 1004.0358697745057 364.3533477467964Q1014.4525359824547 357.7245601599198 1028.3053492252334 357.7245601599198ZM1028.088899018315 371.73971105788735L1028.088899018315 371.73971105788735Q1015.8324060515597 371.73971105788735 1008.7166054991166 379.64014361040967Q1001.6008049466736 387.5135198870671 1000.2479911534335 401.5557270608995L1000.2479911534335 401.5557270608995L1053.41357322777 401.5557270608995Q1053.2241792967163 388.2981518871464 1047.1906297788655 380.0189314725169Q1041.1570802610145 371.73971105788735 1028.088899018315 371.73971105788735ZM1148.110538754578 357.7245601599198L1148.110538754578 357.7245601599198Q1166.8064253771563 357.7245601599198 1176.3572907574317 366.7884125746286Q1185.881099861842 375.82520871347253 1185.881099861842 396.0903593362094L1185.881099861842 396.0903593362094L1185.881099861842 464.0827805844576L1168.9438711704756 464.0827805844576L1168.9438711704756 397.25377919839593Q1168.9438711704756 384.5914420936685 1163.2891095147322 378.3684986447639Q1157.6343478589883 372.1455551958594 1145.5672488232867 372.1455551958594L1145.5672488232867 372.1455551958594Q1128.2241759939484 372.1455551958594 1121.5953884070718 381.88581450718823Q1114.99365709606 391.62607381851706 1114.99365709606 409.91611630312343L1114.99365709606 409.91611630312343L1114.99365709606 464.0827805844576L1097.8399781977755 464.0827805844576L1097.8399781977755 359.67261202218555L1111.6657351646893 359.67261202218555L1114.209025095981 373.87715685120673L1115.1830510271136 373.87715685120673Q1120.2425746138315 365.7061615400365 1129.1982019250813 361.7018327120457Q1138.1538292363307 357.7245601599198 1148.110538754578 357.7245601599198ZM1253.088889110011 452.01568154875577L1253.088889110011 452.01568154875577Q1256.9849928345425 452.01568154875577 1261.0975467659923 451.31221837627095Q1265.1830444215775 450.6358114796509 1267.699278077004 449.85117947957156L1267.699278077004 449.85117947957156L1267.699278077004 462.9193607222711Q1264.9936504905238 464.2721745155112 1259.907070627941 465.1650316190497Q1254.847547041223 466.03083244672337 1250.1668113166122 466.03083244672337L1250.1668113166122 466.03083244672337Q1241.9958160054418 466.03083244672337 1235.0694093840527 463.2169797567839Q1228.1700590385278 460.3760707909797 1223.8681111760243 453.36849534199587Q1219.5932195893856 446.3609198930121 1219.5932195893856 433.6985827882846L1219.5932195893856 433.6985827882846L1219.5932195893856 372.90313092007386L1204.7934366913387 372.90313092007386L1204.7934366913387 364.7321356089036L1219.7826135204393 357.9139540909734L1226.6007950383694 335.7007516059707L1236.7468984876703 335.7007516059707L1236.7468984876703 359.67261202218555L1266.9417023527897 359.67261202218555L1266.9417023527897 372.90313092007386L1236.7468984876703 372.90313092007386L1236.7468984876703 433.2927386503126Q1236.7468984876703 442.8436040305878 1241.319409108822 447.4161146517394Q1245.8919197299736 452.01568154875577 1253.088889110011 452.01568154875577ZM1328.0888858072428 357.9139540909734L1328.0888858072428 357.9139540909734Q1347.190616567793 357.9139540909734 1356.3356378100964 366.3013996090621Q1365.5077153282643 374.661788851286 1365.5077153282643 392.97888761175716L1365.5077153282643 392.97888761175716L1365.5077153282643 464.0827805844576L1353.0347721545907 464.0827805844576L1349.7339064990847 449.28299768641074L1348.9492744990055 449.28299768641074Q1342.1310929810752 457.8598371355531 1334.636504566525 461.9453347911382Q1327.11485987611 466.03083244672337 1313.8843409782214 466.03083244672337L1313.8843409782214 466.03083244672337Q1299.6527398733356 466.03083244672337 1290.3183246999788 458.53624403217316Q1280.9568532507571 451.0416556176229 1280.9568532507571 435.0513965815247L1280.9568532507571 435.0513965815247Q1280.9568532507571 419.46698168339867 1293.2404024933774 410.9983673377155Q1305.496895460133 402.5297529920324 1331.0109636006416 401.7451209919531L1331.0109636006416 401.7451209919531L1348.759880567952 401.1498829229275L1348.759880567952 394.92693947402296Q1348.759880567952 381.88581450718823 1343.1051189122081 376.7992346446054Q1337.4503572564645 371.73971105788735 1327.11485987611 371.73971105788735L1327.11485987611 371.73971105788735Q1318.9438645649395 371.73971105788735 1311.530444977984 374.1747758857196Q1304.1440816668928 376.6098407135518 1297.70468801107 379.7213124380041L1297.70468801107 379.7213124380041L1292.4557704932984 366.869581402223Q1299.2739520112284 363.16287160874504 1308.6083671845852 360.53841284985924Q1317.9698386338068 357.9139540909734 1328.0888858072428 357.9139540909734ZM1348.5434303610334 413.05464430344045L1333.1754656698256 413.62282609660133Q1313.694947047168 414.4074580966806 1306.173302356753 419.8728258213706Q1298.6787139422029 425.3111372701959 1298.6787139422029 435.24079051257837L1298.6787139422029 435.24079051257837Q1298.6787139422029 444.0070238927743 1304.0358565634335 448.1195778242243Q1309.3929991846646 452.2050754798094 1317.7804447027531 452.2050754798094L1317.7804447027531 452.2050754798094Q1331.0109636006416 452.2050754798094 1339.7771969808375 444.89988099631273Q1348.5434303610334 437.59468651281617 1348.5434303610334 422.3890594767973L1348.5434303610334 422.3890594767973L1348.5434303610334 413.05464430344045ZM1414.993643884988 316.03083905225947L1414.993643884988 464.0827805844576L1397.839964986703 464.0827805844576L1397.839964986703 316.03083905225947L1414.993643884988 316.03083905225947Z " fill="#052d02" transform="matrix(0.6183773412209993,0,0,0.6183773412209992,0,58.19538571509594)"/></g></svg>